<?xml version="1.0" encoding="UTF-8"?><svg id="Design" xmlns="http://www.w3.org/2000/svg" viewBox="0 0 620.54 274.94"><defs><style>.cls-1{fill:#3e3e4f;}.cls-1,.cls-2,.cls-3{stroke-width:0px;}.cls-2{fill:#acb77e;}.cls-3{fill:#b93a3a;}</style></defs><path class="cls-2" d="m244.36,73.07c.48-1.57-.24-2.65-.54-3.78-.65-2.51-1.17-5.05-1.84-7.55-.78-2.87-1.24-5.8-1.85-8.7-.21-.98-.66-1.23-1.59-.99-1.35.34-2.72.6-4.08.88-1.49.3-1.81.07-2.09-1.34-.55-2.72-1.05-5.45-1.78-8.14-.57-2.13-.38-2.43,1.7-2.87,2.72-.57,5.4-1.41,8.12-1.89,4.86-.87,9.66-2.03,14.5-2.97,1.7-.33,2.08-.01,2.47,1.71.64,2.84,1.3,5.68,1.92,8.52.31,1.41.14,1.64-1.26,1.96-1.42.33-2.84.63-4.26.92-1.25.26-1.44.51-1.23,1.76.74,4.43,1.87,8.78,2.8,13.17,1.25,5.88,2.54,11.75,3.82,17.62.78,3.58,1.57,7.16,2.34,10.74.4,1.85.22,2.23-1.61,2.69-2.88.71-5.77,1.35-8.67,1.97-1.31.28-1.6.09-2.15-1.16-.44-1.01-1.23-1.74-1.95-2.53-2.3-2.5-4.62-4.98-6.83-7.55-1.37-1.6-3.06-2.97-4.64-4.41-.6-.55-1.21-1.02-1.63-1.75-.3-.53-.86-.92-1.33-1.33-.23-.21-.68-.27-.78-.51-.88-2-2.92-2.84-4.25-4.4-1.31-1.53-2.84-2.86-4.28-4.28-.31-.31-.62-.63-.93-.94-.32-.33-.69-.27-1.05-.11-.34.15-.4.46-.35.79.06.44.12.88.21,1.31,1.32,6.18,2.66,12.36,3.94,18.55.21,1,.72,1.27,1.59,1.11,1.37-.24,2.73-.53,4.1-.82,2.07-.44,2.14-.47,2.62,1.5.64,2.64,1.18,5.3,1.68,7.97.27,1.45.04,1.72-1.49,2.05-4.57.99-9.16,1.91-13.73,2.93-2.96.66-5.97,1.12-8.88,2-.52.16-1.09.16-1.67.06-.93-.17-1.53-.58-1.62-1.55-.23-2.83-1.38-5.49-1.38-8.38,0-1.07.35-1.53,1.26-1.74,1.11-.26,2.22-.49,3.34-.71.31-.06.63-.05.93-.12,1.82-.43,1.8-.43,1.36-2.22-1.17-4.77-2.18-9.57-2.83-14.45-.28-2.12-.92-4.19-1.45-6.28-.52-2.08-.78-4.21-1.31-6.3-.29-1.14-.71-2.29-.75-3.51-.02-.73-.47-1.1-1.3-.93-1.6.33-3.21.59-4.82.9-1.77.34-1.86.26-2.3-1.51-.73-2.94-1.12-5.97-2.07-8.86-.29-.88.06-1.39,1.04-1.66.85-.24,1.72-.49,2.59-.57,4.36-.44,8.53-1.82,12.83-2.57.56-.1,1.08-.33,1.6-.56,1.14-.5,1.4-.38,2.18.64,1.57,2.06,3.38,3.91,5.17,5.76,2.11,2.17,4.21,4.35,6.48,6.34,1.77,1.55,3.32,3.25,4.71,5.12.15.21.32.36.52.51,3.16,2.34,5.65,5.38,8.42,8.13.76.75,1.7,1.29,2.38,2.35Z"/><path class="cls-2" d="m515.32,140.65c-2.46-1.11-6.32-3.27-10.28-5.23-3.32-1.64-6.53-3.51-9.86-5.14-4.57-2.24-9.02-4.71-13.52-7.08-1.28-.67-1.3-.86-.63-2.14,1.32-2.55,2.91-4.96,3.97-7.65.18-.46.56-.84.82-1.28.42-.72.92-.68,1.59-.3,1.36.78,2.76,1.5,4.16,2.21,1.1.55,1.24.53,1.85-.63,1.77-3.35,3.41-6.77,5.25-10.08,3.19-5.73,5.91-11.7,9.08-17.44.79-1.42.75-1.52-.73-2.26-1.36-.68-2.71-1.36-4.04-2.09-1.04-.57-1.16-.87-.64-1.97.7-1.48,1.53-2.91,2.29-4.36.79-1.51,1.53-3.05,2.35-4.54.63-1.14.78-1.16,1.91-.57,4.89,2.52,9.79,5.03,14.65,7.6,1.8.95,3.69,1.67,5.57,2.39,1.95.76,3.66,1.91,5.39,2.99,2.48,1.54,5.07,2.85,7.65,4.2,4.42,2.31,8.87,4.57,13.3,6.86,1.28.66,1.52,1.16.68,2.15-2.07,2.45-3,5.51-4.59,8.22-1.34,2.29-2.48,4.69-3.68,7.06-.34.68-.69.95-1.47.53-3.16-1.7-6.18-3.67-9.47-5.14-.53-.24-.73-.69-.31-1.24.98-1.26,1.38-2.84,2.26-4.16.47-.7.51-1.22-.38-1.66-4.19-2.06-8.24-4.39-12.5-6.31-1.52-.69-3.03-1.45-4.49-2.29-1.53-.88-1.6-.86-2.38.63-1.08,2.07-2.16,4.14-3.26,6.2-.86,1.62-.85,1.82.67,2.61,2.45,1.27,4.93,2.49,7.41,3.71,1.16.57,1.18.55.64,1.61-1.42,2.81-2.84,5.61-4.26,8.42-.14.28-.35.53-.5.81-.39.74-.86.71-1.55.34-2.39-1.29-4.82-2.51-7.23-3.76-1.56-.8-1.47-.75-2.46.74-1.37,2.06-2.3,4.35-3.52,6.49-.78,1.38-.73,1.41.73,2.24,2.13,1.21,4.3,2.32,6.51,3.4,3.5,1.71,6.91,3.6,10.37,5.4,1.19.62,1.21.61,1.83-.58.68-1.29,1.34-2.58,2.01-3.88.73-1.42.8-1.48,2.13-.79,1.84.95,3.69,1.88,5.46,2.94.98.59,2.07.88,3.05,1.49.9.56.94,1.03.55,1.83-.92,1.87-1.96,3.67-2.87,5.55-1.36,2.83-2.99,5.53-4.34,8.37-1.26,2.66-1.33,2.66-4,1.31-3.22-1.63-6.41-3.3-11.15-5.74Z"/><path class="cls-2" d="m438.73,111.4c-3.42-1.12-6.85-2.23-10.26-3.37-.45-.15-1.01-.18-1.12-.84-.36-2.12-1.82-3.73-2.7-5.6-1.16-2.45-2.53-4.8-3.88-7.16-.34-.6-.24-1.11-.03-1.62,1.33-3.13,2.23-6.42,3.2-9.66,1.48-4.95,3.26-9.8,4.76-14.75.95-3.13,1.98-6.25,3.01-9.36.14-.43.4-.59.74-.75,2.52-1.18,5.01-2.42,7.56-3.55,1.69-.75,3.24-1.7,4.75-2.74,1.04-.71,2-.88,3.32-.39,3.07,1.13,6.22,2.07,9.4,2.91,2.45.65,4.78,1.85,7.26,2.51.47.13.87.46,1.09.98.2.46.46.9.77,1.3.62.78.99.81,1.32-.05.37-.95.85-.86,1.6-.6,2.08.71,4.18,1.36,6.26,2.06.9.3,1.79.62,2.73.78,1.39.23,1.5.32.96,1.69-1.86,4.76-2.97,9.77-5.03,14.46-.32.74-.31,1.57-.65,2.34-.53,1.18-.46,1.24-1.69.85-1.39-.44-2.76-.92-4.13-1.39-1.67-.57-3.34-1.17-5.02-1.72-.68-.22-.88-.57-.63-1.26.34-.95.94-1.99.79-2.88-.2-1.12-1.09-2.1-1.62-3.18-.34-.7-.89-1.03-1.57-1.25-4.03-1.3-8.07-2.59-12.1-3.92-.77-.26-1.43-.13-2.19.06-2.63.66-4.1,2.03-4.63,4.91-.54,2.94-1.85,5.74-2.89,8.58-.5,1.36-.9,2.78-1.22,4.14-.68,2.9-2.07,5.53-2.78,8.41-.27,1.09-.2,1.95.44,2.82.26.36.63.69.73,1.1.48,1.78,1.85,2.32,3.43,2.77,2.16.61,4.25,1.44,6.39,2.14,1.61.52,3.24,1.01,4.88,1.46,1.48.41,2.65-.61,3.95-1,.84-.26.8-1.21,1.03-1.91.57-1.68,1.1-3.36,1.67-5.04.26-.76.09-1.13-.75-1.33-1.04-.25-2.03-.71-3.05-1.04-.7-.23-.8-.56-.54-1.27,1.22-3.24,2.27-6.54,3.04-9.92.18-.78.4-1.06,1.26-.77,4.43,1.48,8.88,2.91,13.33,4.36,2.04.66,4.08,1.31,6.1,2,1.52.52,1.51.55,1.02,1.99-.99,2.93-1.97,5.87-2.95,8.81-.5,1.49-.66,1.56-2.18,1.07-.84-.27-1.69-.51-2.53-.79-.89-.3-1.25.11-1.49.92-.99,3.32-2.06,6.62-3.03,9.94-.22.76-.64,1.17-1.31,1.46-4.33,1.91-8.66,3.83-12.97,5.77-.59.26-1.06.17-1.63-.02-3.42-1.15-6.85-2.26-10.27-3.38,0-.02.02-.05.02-.07Z"/><path class="cls-2" d="m86.63,99.77c3.15,3.13,6.14,6.09,9.12,9.07,2.32,2.32,4.68,4.59,6.89,7.01,1.24,1.35,2.59,2.55,3.95,3.75.32.28.59.7,1.12.35.43-.28.49-.66.45-1.14-.31-3.83-.53-7.67-.91-11.49-.51-5.13-1.12-10.25-1.72-15.38-.13-1.11-.25-1.13-1.36-.71-.3.11-.59.23-.88.36-2.67,1.16-2.66,1.14-5.2,0-.46-.21-.65-.55-.85-.95-1.06-2.16-2.16-4.3-3.18-6.48-.58-1.23-.41-1.65.82-2.26,2.32-1.16,4.66-2.27,7-3.39,3.57-1.72,7.2-3.31,10.64-5.28,1.59-.91,3.42-1.3,5.03-2.2.66-.37,1.17-.03,1.56.61,1.69,2.76,2.9,5.75,4.33,8.63.42.84.14,1.44-.71,1.84-1.55.73-3.08,1.49-4.62,2.22-.76.36-1,.8-.93,1.76.14,2.06.08,4.12.31,6.19.53,4.62.86,9.27,1.3,13.9.39,4.14.87,8.26,1.19,12.4.33,4.32.52,8.66.77,12.99.01.19,0,.38.02.57.24,2.32.25,2.35-1.77,3.3-2.56,1.21-5.16,2.35-7.72,3.56-.81.38-1.37.23-2-.41-2.8-2.82-5.73-5.5-8.63-8.21-3.21-2.99-6.11-6.31-9.3-9.33-2.1-1.99-4.08-4.11-6.27-6.02-2.65-2.31-4.98-4.98-7.55-7.39-.89-.84-2.37-.64-2.91-1.91-.01-.03-.57.13-.85.26-1.44.65-2.86,1.34-4.31,1.98-1.47.66-2.07.44-2.72-.96-1.17-2.52-2.34-5.04-3.51-7.56-.75-1.61-.73-1.92.81-2.7,2.59-1.31,5.22-2.56,7.88-3.74,4.16-1.84,8.15-4,12.22-6.01,3.21-1.59,3.23-1.66,4.81,1.42,1.13,2.19,2.21,4.41,3.26,6.63.63,1.34.5,1.69-.89,2.35-1.54.72-3.15,1.28-4.68,2.37Z"/><path class="cls-2" d="m305.07,32.7c8.1.04,16.21.08,24.31.11,1.13,0,2.27-.19,3.4.01,1.11.19,1.4.47,1.41,1.61.02,2.28,0,4.56-.02,6.83-.01,3.02-.03,6.04-.05,9.05-.01,2.05-.13,2.22-2.12,2.19-2.84-.04-5.67-.13-8.51-.07-1.78.04-2.04-.31-2.01-2.14.02-1.32.04-2.65.07-3.97.02-.86-.35-1.24-1.25-1.24-2.72.01-5.43,0-8.15-.08-.94-.03-1.17.32-1.17,1.21,0,2.78-.1,5.57-.12,8.35-.04,6.38-.04,12.75-.1,19.13-.01,1.51-.29,3-.05,4.53.13.83.45,1.13,1.17,1.13,1.33,0,2.66-.03,3.99-.06.51,0,1.01-.05,1.52-.05.84,0,1.31.45,1.31,1.29,0,2.9-.03,5.8-.05,8.69,0,.25-.07.5-.09.75-.1.93-.59,1.32-1.53,1.25-3.09-.22-6.19-.14-9.29-.11-4.81.05-9.62-.23-14.43.04-.44.02-.89.03-1.33-.02-.65-.07-1.07-.46-1.06-1.12.03-3.03-.34-6.05-.15-9.08.09-1.49.33-1.78,1.85-1.7,1.52.08,3.02-.22,4.55-.02,1.24.16,1.53-.2,1.5-1.53-.06-3.09.22-6.19-.18-9.28-.12-.98.18-2.01.19-3.01.06-6.32.11-12.63.14-18.95,0-1.63,0-1.64-1.68-1.66-2.53-.03-5.06-.06-7.59-.04-1.33.01-1.4.1-1.44,1.39-.04,1.33.01,2.66-.03,3.98-.06,1.62-.42,2.04-2.05,2.06-2.4.02-4.8-.05-7.2-.15-.63-.03-1.23-.12-1.88-.05-1.2.12-1.77-.36-1.62-1.49.41-3.15-.12-6.3.09-9.46.15-2.23.14-4.53-.02-6.79-.09-1.28.21-1.6,1.58-1.78,1.77-.23,3.54,0,5.3.02,4.3.05,8.6,0,12.91,0,3.29,0,6.58.03,9.87.04,0,.06,0,.11,0,.17Z"/><path class="cls-2" d="m169.62,84.46c1.23,3.7,2.45,7.42,3.71,11.11.51,1.49,1.12,2.93,1.66,4.41.25.68.63.83,1.31.56,1.58-.61,3.16-1.23,4.77-1.74,1.37-.43,1.48-.39,1.93.91,1.19,3.39,2.28,6.81,3.44,10.21.21.63.04.89-.58,1.09-1.92.62-3.82,1.33-5.74,1.97-5.21,1.73-10.42,3.45-15.64,5.18-1.2.4-2.4.79-3.6,1.21-.59.21-.95.07-1.16-.55-.6-1.71-1.27-3.4-1.84-5.12-.58-1.74-1.04-3.52-1.64-5.25-.3-.86-.14-1.26.73-1.52,1.69-.5,3.36-1.08,5.04-1.62,1.23-.4,1.39-.53,1-1.72-1.05-3.24-2.07-6.5-3.35-9.65-.72-1.77-.95-3.65-1.65-5.42-1.13-2.86-2.04-5.81-3.02-8.73-.59-1.76-1.41-3.47-1.71-5.34-.06-.37-.27-.71-.38-1.07-.22-.69-.63-.85-1.31-.6-1.36.51-2.74.98-4.11,1.47-.23.08-.45.24-.68.3-1.5.42-1.6.33-2.12-1.2-1.06-3.17-2.12-6.34-3.24-9.48-.34-.94-.17-1.23.81-1.55,4.86-1.55,9.72-3.11,14.54-4.76,3.27-1.12,6.65-1.97,9.82-3.39,1.1-.49,1.27-.4,1.74.64.16.34.32.7.4,1.07.61,3.04,1.93,5.87,2.63,8.87.3,1.27.3,1.29-.98,1.74-1.67.59-3.34,1.19-5.03,1.72-.85.27-1.07.67-.78,1.53,1.67,4.91,3.29,9.83,4.93,14.74.03,0,.05-.02.08-.03Z"/><path class="cls-2" d="m404.38,99.6c.04-.69.15-1.36.27-2.04.5-2.68.91-5.38,1.36-8.07.12-.71,0-1.21-.88-1.33-2-.28-3.98-.67-5.98-.94-.65-.09-.92-.26-1.12-.94-.95-3.32-1.64-6.7-2.37-10.06-.82-3.75-1.27-7.58-2.15-11.32-1.08-4.61-1.81-9.28-2.81-13.9-.31-1.41-.77-2.78-.99-4.23-.42-2.74-1.07-5.45-1.58-8.18-.11-.58-.31-1.01-.9-1.01-3.3-.04-6.47-1.01-9.73-1.35-.75-.08-1.04.17-1.27.76-.36.88-.66,1.79-1.12,2.61-2.7,4.77-5.44,9.52-8.18,14.27-2.04,3.54-4.1,7.07-6.17,10.6-2.01,3.42-4.07,6.8-6.04,10.24-.66,1.15-1.46,2.2-2.15,3.32-.66,1.08-1.54,1.31-2.75,1.02-1.53-.37-3.1-.57-4.65-.86-.75-.14-1.13,0-1.27.88-.18,1.18-.12,2.38-.42,3.56-.6,2.39-.71,4.88-1.51,7.23-.18.53.01.99.69,1.09.93.14,1.84.37,2.77.47,2.95.32,5.86.87,8.78,1.33,4.79.75,9.58,1.58,14.37,2.41.78.14,1.15-.03,1.28-.88.51-3.48,1.03-6.96,1.64-10.42.18-1.02-.1-1.34-1.07-1.46-1.57-.21-3.12-.51-4.67-.85-.89-.19-1.04-.56-.63-1.31.54-1,1.11-1.98,1.7-2.95.51-.84,1.19-1.15,2.24-.97,4.42.77,8.85,1.46,13.28,2.19,2.01.33,2.04.36,2.51,2.46.16.74.32,1.48.45,2.23.24,1.38.05,1.61-1.29,1.45-1.32-.16-2.63-.4-3.95-.6-1.12-.17-1.42-.32-1.66,1.08-.53,3.18-1.14,6.35-1.69,9.53-.28,1.62-.17,1.78,1.57,2.08,3.99.69,7.99,1.34,11.98,2.01,0,.01,0,.02,0,.03,1.62.27,3.25.54,4.87.81,2.56.43,5.11.88,7.68,1.29,1.11.17,1.52-.17,1.58-1.3Zm-23.6-31.67c-2.05-.33-4.09-.73-6.14-1.09-.54-.09-.96-.27-.98-.85.49-.96.91-1.87,1.4-2.74.9-1.58,1.84-3.15,2.78-4.71.16-.27.35-.53.56-.76.33-.35.59-.92,1.19-.74.47.15.52.65.61,1.09.33,1.66.67,3.33,1,4.99.23,1.17.47,2.34.67,3.52.19,1.15-.06,1.46-1.1,1.29Z"/><path class="cls-1" d="m126.42,238.94c-3.41-3.64-5.92-7.78-7.54-12.42-1.62-4.64-2.42-8.94-2.42-12.89s.21-6.17.64-6.66c.43-.49.91-.92,1.45-1.28.94-.63,2.09-1.12,3.43-1.48,3.68,9.42,10.48,15.48,20.4,18.18,3.19.9,6.41,1.35,9.66,1.35s6.15-.28,8.68-.84c2.54-.56,4.75-1.45,6.63-2.66,4.08-2.69,6.13-6.75,6.13-12.18,0-4.13-1.64-8.73-4.91-13.8-1.39-2.24-2.89-4.48-4.51-6.7-1.62-2.22-3.12-4.48-4.51-6.77-3.28-5.25-4.91-9.75-4.91-13.5s.53-6.87,1.58-9.36c1.05-2.49,2.5-4.73,4.34-6.73,1.84-2,4.01-3.76,6.5-5.28,2.49-1.52,5.19-2.8,8.11-3.84,5.83-2.06,12.03-3.1,18.58-3.1,6.19,0,11.06.64,14.61,1.92,3.54,1.28,6.07,2.59,7.57,3.94,1.5,1.35,2.25,2.67,2.25,3.97s-.2,2.39-.61,3.26c-.4.88-.92,1.74-1.55,2.59-1.35,1.75-2.67,3.07-3.97,3.97-3.1-4.94-8.26-8.41-15.48-10.43-2.33-.63-4.79-.94-7.37-.94s-5.15.31-7.71.94c-2.56.63-4.8,1.53-6.73,2.69-4.35,2.51-6.53,5.79-6.53,9.83,0,2.2.77,4.4,2.32,6.6,1.55,2.2,3.48,4.49,5.79,6.87,2.31,2.38,4.81,4.87,7.51,7.47,2.69,2.6,5.18,5.39,7.47,8.35,5.43,6.91,8.15,13.72,8.15,20.43s-1.26,12.52-3.77,17.44c-2.51,4.91-5.9,9.01-10.17,12.29-8.53,6.69-19.28,10.03-32.25,10.03-10.95,0-19.9-3.75-26.86-11.24Z"/><path class="cls-1" d="m230.83,243.86c-14.32,0-21.47-6.08-21.47-18.24,0-8.48,5.63-20.24,16.9-35.27-1.12-.36-2.15-.67-3.1-.94-.94-.27-1.71-.5-2.29-.71-.58-.2-.94-.53-1.08-.98-.13-.45-.18-.96-.13-1.55.18-1.35.49-2.42.94-3.23l10.17,1.68c7.94-9.65,14.79-16.27,20.53-19.86,1.75-1.08,2.98-1.62,3.7-1.62s1.36.1,1.92.3c.56.2,1.13.46,1.72.77,1.26.67,2.24,1.46,2.96,2.36-6.06,5.92-11.74,12.72-17.03,20.4,10.28,1.8,16.56,2.76,18.85,2.89-1.21,4.8-2.6,7.2-4.17,7.2-3.86,0-10.21-1.05-19.05-3.16-4.44,7.4-6.66,13.55-6.66,18.44,0,6.73,4.53,10.1,13.6,10.1,10.14,0,18.49-4.91,25.04-14.74,2.02-.13,3.03.7,3.03,2.49,0,1.57-.94,3.92-2.83,7.03-1.88,3.12-3.77,5.82-5.65,8.11-1.88,2.29-4.06,4.54-6.53,6.77-2.47,2.22-5.21,4.21-8.21,5.96-6.55,3.86-13.6,5.79-21.14,5.79Z"/><path class="cls-1" d="m285.22,244.12l-1.35.07c-7.09,0-12.5-1.75-16.22-5.25-3.5-3.28-5.25-7.72-5.25-13.33,0-7.72,3.07-15.1,9.22-22.15,5.97-6.82,13.22-11.6,21.74-14.34-.27-2.02.47-3.68,2.22-4.98,1.26-.94,3.33-1.41,6.23-1.41s5.69.27,8.38.81,5.41,1.73,8.15,3.57c5.92,3.9,8.89,9.15,8.89,15.75,0,7.14-1.77,13.91-5.32,20.33,7.72-1.66,14.47-6.82,20.26-15.48,2.02-.13,3.03.7,3.03,2.49,0,.72-.22,1.59-.67,2.63-6.1,14.5-18.31,24.1-36.62,28.81-6.55,1.71-14,2.56-22.35,2.56l-.34-.07Zm-1.14-29.48c0,5.21,2.18,7.81,6.53,7.81,3.68,0,7.38-2.22,11.11-6.66,3.91-4.62,5.86-9.31,5.86-14.07s-2.33-8.06-7-9.63c-8.03,2.24-13.17,7.27-15.42,15.08-.72,2.38-1.08,4.87-1.08,7.47Z"/><path class="cls-1" d="m365.87,203.4c-5.38-.27-9.96-.83-13.73-1.68-4.62,8.03-9.16,15.19-13.6,21.47-.58.94-1.91,1.19-3.97.74-3.68-.81-5.79-1.75-6.33-2.83,7.99-5.61,13.6-12.81,16.83-21.61-4.71-2.15-7.07-5.21-7.07-9.16,0-2.42,1.59-5.52,4.78-9.29,3.01-3.68,5.23-5.52,6.67-5.52,4.4,0,7.74,1.12,10.03,3.37.9.85,1.35,1.99,1.35,3.4s-.76,3.78-2.29,7.1c6.91,3.37,15.62,5.34,26.12,5.92-.31,3.1-1.62,5.61-3.91,7.54-.63.58-1.26.88-1.88.88-3.19,2.87-5.43,5.99-6.73,9.36-.4,1.08-.61,2.11-.61,3.1,0,4.17,2.49,6.26,7.47,6.26,3.37,0,7.09-1.5,11.17-4.51,3.63-2.74,6.82-6.15,9.56-10.23,2.02-.13,3.03.7,3.03,2.49,0,1.53-.93,3.86-2.79,7-1.86,3.14-3.67,5.86-5.42,8.15-1.75,2.29-3.7,4.53-5.86,6.73-2.15,2.2-4.44,4.17-6.87,5.92-5.43,3.86-10.75,5.79-15.95,5.79-8.84,0-14.77-2.74-17.77-8.21-1.03-1.84-1.55-3.98-1.55-6.43s.5-4.86,1.51-7.24c1.01-2.38,2.39-4.69,4.14-6.93,3.59-4.67,8.15-8.53,13.67-11.58Z"/><path class="cls-1" d="m407.03,158.98c-2.29-1.23-3.07-3.02-2.35-5.4.68-2.24,2.54-4.21,5.59-5.9,3.47-1.9,7.34-2.86,11.62-2.86s8.11,1.08,11.52,3.24,6.4,5.21,8.98,9.14c5.33,8,8.7,18.64,10.09,31.93,2.29-3.34,4.58-6.73,6.89-10.16,2.31-3.43,4.64-6.77,7.01-10.03,2.37-3.26,4.77-6.37,7.21-9.33,2.43-2.96,4.9-5.67,7.39-8.12,5.46-5.29,10.75-8.89,15.87-10.79.21-.08.43-.13.67-.13s.52.05.86.16c.34.11.72.33,1.14.67.97.76,1.59,1.63,1.84,2.6-9.65,6.47-18.43,17.94-26.34,34.4-2.29,4.74-4.49,9.53-6.6,14.38-2.12,4.85-4.22,9.66-6.32,14.44-2.09,4.78-4.25,9.34-6.47,13.68-2.22,4.34-4.58,8.36-7.08,12.06-2.5,3.7-5.23,6.93-8.19,9.68-6.31,5.8-13.48,8.7-21.52,8.7-8.68,0-15.66-4.04-20.95-12.12-2.84-4.32-4.62-8.18-5.36-11.58-.74-3.41-1.11-5.6-1.11-6.57s.18-1.65.54-2.03c.36-.38.79-.74,1.3-1.08.89-.59,1.97-1.06,3.24-1.4,1.14,2.33,3.28,4.38,6.41,6.16,3.34,1.95,6.69,2.92,10.03,2.92,5.84,0,11.91-3.02,18.22-9.08,4.02-9.35,6.03-19.68,6.03-30.98,0-8.97-1.31-16.52-3.94-22.66-3.22-7.45-7.52-11.17-12.92-11.17s-9.83,2.41-13.3,7.24Z"/><circle class="cls-3" cx="584.97" cy="148.54" r="11.01"/><circle class="cls-3" cx="35.23" cy="148.54" r="11.01"/></svg>