<svg data-name="Layer 1" viewBox="0 0 32 32" xmlns="http://www.w3.org/2000/svg"><path d="m31.83 16.45-4-6A1 1 0 0 0 27 10h-8a1 1 0 0 0-1 1v12a1 1 0 0 0 1 1h2a4 4 0 0 1 .54-2H20V12h6.46L30 17.3V22h-1.54a4 4 0 0 1 .54 2h2a1 1 0 0 0 1-1v-6a1 1 0 0 0-.17-.55Z" fill="#3b3c4f" class="fill-000000"></path><path d="M19 4H1a1 1 0 0 0-1 1v18a1 1 0 0 0 1 1h2a4 4 0 0 1 .54-2H2V6h16v16h-7.54a4 4 0 0 1 .54 2h8a1 1 0 0 0 1-1V5a1 1 0 0 0-1-1ZM27 18h-5a1 1 0 0 1 0-2h5a1 1 0 0 1 0 2Z" fill="#3b3c4f" class="fill-000000"></path><path d="M27.4 18a1 1 0 0 1-.84-.45L24.86 15H23v2a1 1 0 0 1-2 0v-3a1 1 0 0 1 1-1h3.39a1 1 0 0 1 .84.45l2 3a1 1 0 0 1-.23 1.38.94.94 0 0 1-.6.17ZM7 28a4 4 0 1 1 4-4 4 4 0 0 1-4 4Zm0-6a2 2 0 1 0 2 2 2 2 0 0 0-2-2ZM25 28a4 4 0 1 1 4-4 4 4 0 0 1-4 4Zm0-6a2 2 0 1 0 2 2 2 2 0 0 0-2-2Z" fill="#3b3c4f" class="fill-000000"></path></svg>