<svg version="1.0" viewBox="0 0 64 64" xml:space="preserve" xmlns="http://www.w3.org/2000/svg" enable-background="new 0 0 64 64"><path d="M55.67 16c-1.25-.01-4.46-.31-7.19-2.81-3.24-2.97-3.49-6.89-3.49-8.02 0-.55-.44-.99-.98-1L33.7 4.15c-.55 0-1 .45-1 1v36.57c-.01 3.8-3.11 6.89-6.9 6.89-3.8 0-6.9-3.1-6.9-6.9s3.1-6.9 6.9-6.9c.67 0 1.36.1 2.04.3.3.09.63.03.88-.16s.4-.49.4-.8v-9.38c0-.5-.36-.92-.85-.99-.94-.14-1.87-.21-2.78-.21-10.01 0-18.15 8.14-18.15 18.15 0 10 8.14 18.14 18.15 18.14 10.01 0 18.15-8.14 18.15-18.14v-17.5c2.69 2.57 6.3 4.05 10.09 4.05.73 0 1.43-.05 2.08-.16a1 1 0 0 0 .84-.99V17a.98.98 0 0 0-.98-1zm-1.01 10.23c-.3.02-.61.03-.92.03-4.08 0-7.92-1.98-10.27-5.31a.996.996 0 0 0-1.12-.38c-.42.13-.7.52-.7.95V41.7c0 8.9-7.25 16.14-16.15 16.14-8.91 0-16.15-7.24-16.15-16.14 0-8.91 7.25-16.15 16.15-16.15.53 0 1.08.03 1.63.08v7.25c-.44-.07-.89-.1-1.33-.1-4.91 0-8.9 3.99-8.9 8.9s3.99 8.9 8.9 8.9c4.89 0 8.88-3.98 8.9-8.89V6.15h7.93l.41.01c.17 1.95.92 5.61 4.09 8.51 2.66 2.44 5.71 3.11 7.53 3.28v8.28z" fill="#ffffff" class="fill-000000"></path></svg>